<svg width="30" height="30" viewBox="0 0 30 30" fill="none" xmlns="http://www.w3.org/2000/svg">
<path fill-rule="evenodd" clip-rule="evenodd" d="M14.5833 0C6.52896 0 0 6.52896 0 14.5833C0 17.3396 0.765625 19.9208 2.09708 22.12L0.79625 26.5417C0.721561 26.7955 0.716646 27.0648 0.782023 27.3213C0.8474 27.5777 0.980653 27.8118 1.16777 27.9989C1.3549 28.186 1.58897 28.3193 1.8454 28.3846C2.10183 28.45 2.37113 28.4451 2.625 28.3704L7.04667 27.0696C9.31974 28.4449 11.9266 29.1703 14.5833 29.1667C22.6377 29.1667 29.1667 22.6377 29.1667 14.5833C29.1667 6.52896 22.6377 0 14.5833 0ZM11.2846 17.8835C14.2348 20.8323 17.0508 21.2217 18.0454 21.2581C19.5577 21.3135 21.0306 20.1585 21.6037 18.8183C21.6761 18.6516 21.7024 18.4685 21.6798 18.2882C21.6572 18.1078 21.5866 17.9369 21.4754 17.7931C20.6763 16.7723 19.5956 16.0388 18.5398 15.3096C18.3193 15.1572 18.0484 15.096 17.7839 15.139C17.5194 15.1819 17.2817 15.3257 17.1208 15.54L16.2458 16.8744C16.1998 16.9461 16.1281 16.9976 16.0455 17.0182C15.9628 17.0388 15.8753 17.027 15.801 16.9852C15.2075 16.6454 14.3427 16.0679 13.7215 15.4467C13.1002 14.8254 12.5577 14 12.2529 13.4444C12.2151 13.3738 12.2042 13.2919 12.2222 13.2139C12.2401 13.1358 12.2858 13.067 12.3506 13.02L13.6981 12.0196C13.8904 11.8524 14.0145 11.6203 14.0468 11.3675C14.0791 11.1147 14.0173 10.8589 13.8731 10.6488C13.2198 9.69208 12.4585 8.47583 11.3546 7.66937C11.2121 7.56613 11.0452 7.50175 10.8703 7.48258C10.6954 7.4634 10.5185 7.49008 10.3571 7.56C9.01542 8.13458 7.85458 9.6075 7.91 11.1227C7.94646 12.1173 8.33583 14.9333 11.2846 17.8835Z" fill="white"/>
</svg>
