<svg width="29" height="35" viewBox="0 0 29 35" fill="none" xmlns="http://www.w3.org/2000/svg">
<path d="M18.4375 24.2969V28.418C18.4375 29.2904 18.1836 29.7266 17.6758 29.7266C17.3763 29.7266 17.0833 29.5833 16.7969 29.2969V23.418C17.0833 23.1315 17.3763 22.9883 17.6758 22.9883C18.1836 22.9883 18.4375 23.4245 18.4375 24.2969ZM25.0391 24.3164V25.2148H23.2812V24.3164C23.2812 23.431 23.5742 22.9883 24.1602 22.9883C24.7461 22.9883 25.0391 23.431 25.0391 24.3164ZM6.17188 20.0586H8.26172V18.2227H2.16797V20.0586H4.21875V31.1719H6.17188V20.0586ZM11.7969 31.1719H13.5352V21.5234H11.7969V28.9062C11.4062 29.4531 11.0352 29.7266 10.6836 29.7266C10.4492 29.7266 10.3125 29.5898 10.2734 29.3164C10.2604 29.2773 10.2539 29.0495 10.2539 28.6328V21.5234H8.51562V29.1602C8.51562 29.7982 8.56771 30.2734 8.67188 30.5859C8.82812 31.0677 9.20573 31.3086 9.80469 31.3086C10.4297 31.3086 11.0938 30.9115 11.7969 30.1172V31.1719ZM20.1758 28.2812V24.4336C20.1758 23.4831 20.1172 22.8385 20 22.5C19.7786 21.7708 19.3164 21.4062 18.6133 21.4062C17.9622 21.4062 17.3568 21.7578 16.7969 22.4609V18.2227H15.0586V31.1719H16.7969V30.2344C17.3828 30.9505 17.9883 31.3086 18.6133 31.3086C19.3164 31.3086 19.7786 30.9505 20 30.2344C20.1172 29.8828 20.1758 29.2318 20.1758 28.2812ZM26.7773 28.0859V27.832H25C25 28.4961 24.987 28.8932 24.9609 29.0234C24.8698 29.4922 24.6094 29.7266 24.1797 29.7266C23.5807 29.7266 23.2812 29.2773 23.2812 28.3789V26.6797H26.7773V24.668C26.7773 23.6393 26.6016 22.8841 26.25 22.4023C25.7422 21.7383 25.0521 21.4062 24.1797 21.4062C23.2943 21.4062 22.5977 21.7383 22.0898 22.4023C21.7253 22.8841 21.543 23.6393 21.543 24.668V28.0469C21.543 29.0755 21.7318 29.8307 22.1094 30.3125C22.6172 30.9766 23.3203 31.3086 24.2188 31.3086C25.1562 31.3086 25.8594 30.9635 26.3281 30.2734C26.5625 29.9219 26.6992 29.5703 26.7383 29.2188C26.7643 29.1016 26.7773 28.724 26.7773 28.0859ZM14.9023 10.2539V6.15234C14.9023 5.25391 14.6224 4.80469 14.0625 4.80469C13.5026 4.80469 13.2227 5.25391 13.2227 6.15234V10.2539C13.2227 11.1654 13.5026 11.6211 14.0625 11.6211C14.6224 11.6211 14.9023 11.1654 14.9023 10.2539ZM28.9453 24.9219C28.9453 27.9688 28.776 30.2474 28.4375 31.7578C28.2552 32.526 27.8776 33.1706 27.3047 33.6914C26.7318 34.2122 26.0677 34.5117 25.3125 34.5898C22.9167 34.8633 19.3034 35 14.4727 35C9.64193 35 6.02865 34.8633 3.63281 34.5898C2.8776 34.5117 2.21029 34.2122 1.63086 33.6914C1.05143 33.1706 0.677083 32.526 0.507812 31.7578C0.169271 30.2995 0 28.0208 0 24.9219C0 21.875 0.169271 19.5964 0.507812 18.0859C0.690104 17.3177 1.06771 16.6732 1.64062 16.1523C2.21354 15.6315 2.88411 15.3255 3.65234 15.2344C6.03516 14.974 9.64193 14.8438 14.4727 14.8438C19.3034 14.8438 22.9167 14.974 25.3125 15.2344C26.0677 15.3255 26.735 15.6315 27.3145 16.1523C27.8939 16.6732 28.2682 17.3177 28.4375 18.0859C28.776 19.5443 28.9453 21.8229 28.9453 24.9219ZM9.45312 0H11.4453L9.08203 7.79297V13.0859H7.12891V7.79297C6.94661 6.82943 6.54948 5.44922 5.9375 3.65234C5.45573 2.3112 5.03255 1.09375 4.66797 0H6.73828L8.125 5.13672L9.45312 0ZM16.6797 6.50391V9.92188C16.6797 10.9766 16.4974 11.7448 16.1328 12.2266C15.638 12.8906 14.9479 13.2227 14.0625 13.2227C13.1901 13.2227 12.5065 12.8906 12.0117 12.2266C11.6471 11.7318 11.4648 10.9635 11.4648 9.92188V6.50391C11.4648 5.46224 11.6471 4.70052 12.0117 4.21875C12.5065 3.55469 13.1901 3.22266 14.0625 3.22266C14.9479 3.22266 15.638 3.55469 16.1328 4.21875C16.4974 4.70052 16.6797 5.46224 16.6797 6.50391ZM23.2227 3.33984V13.0859H21.4453V12.0117C20.7552 12.819 20.0846 13.2227 19.4336 13.2227C18.8346 13.2227 18.4505 12.9818 18.2812 12.5C18.1771 12.1875 18.125 11.6992 18.125 11.0352V3.33984H19.9023V10.5078C19.9023 10.9375 19.9089 11.1654 19.9219 11.1914C19.9609 11.4779 20.0977 11.6211 20.332 11.6211C20.6836 11.6211 21.0547 11.3411 21.4453 10.7812V3.33984H23.2227Z" fill="white"/>
</svg>
